<svg viewBox="0 0 600 340" xmlns="http://www.w3.org/2000/svg">
  <defs>
    <radialGradient id="bg" cx="30%" cy="50%" r="80%"><stop offset="0%" stop-color="#160f04"/><stop offset="100%" stop-color="#090808"/></radialGradient>
    <radialGradient id="glow" cx="25%" cy="45%" r="60%"><stop offset="0%" stop-color="#e8872c" stop-opacity="0.26"/><stop offset="100%" stop-color="#e8872c" stop-opacity="0"/></radialGradient>
  </defs>
  <rect width="600" height="340" fill="url(#bg)"/>
  <rect width="600" height="340" fill="url(#glow)"/>
  <g stroke="#e8872c" stroke-opacity="0.05" stroke-width="0.5">
    <line x1="0" y1="68" x2="600" y2="68"/><line x1="0" y1="136" x2="600" y2="136"/>
    <line x1="0" y1="204" x2="600" y2="204"/><line x1="0" y1="272" x2="600" y2="272"/>
    <line x1="100" y1="0" x2="100" y2="340"/><line x1="200" y1="0" x2="200" y2="340"/>
    <line x1="300" y1="0" x2="300" y2="340"/><line x1="400" y1="0" x2="400" y2="340"/>
    <line x1="500" y1="0" x2="500" y2="340"/>
  </g>
  <!-- Hexagon target -->
  <polygon points="200,80 248,107 248,163 200,190 152,163 152,107" fill="#e8872c" fill-opacity="0.06" stroke="#e8872c" stroke-opacity="0.4" stroke-width="1.2"/>
  <polygon points="200,105 232,123 232,158 200,176 168,158 168,123" fill="none" stroke="#e8872c" stroke-opacity="0.25" stroke-width="1"/>
  <circle cx="200" cy="135" r="12" fill="#e8872c" fill-opacity="0.2" stroke="#e8872c" stroke-opacity="0.7" stroke-width="1.5"/>
  <!-- Outer halos -->
  <circle cx="200" cy="170" r="108" fill="none" stroke="#e8872c" stroke-opacity="0.07" stroke-width="1"/>
  <circle cx="200" cy="170" r="78" fill="none" stroke="#e8872c" stroke-opacity="0.1" stroke-width="1"/>
  <!-- Badge -->
  <rect x="150" y="230" width="100" height="20" rx="3" fill="#e8872c" fill-opacity="0.12" stroke="#e8872c" stroke-opacity="0.4" stroke-width="1"/>
  <text x="200" y="244" text-anchor="middle" font-family="monospace" font-size="7.5" fill="#e8872c" fill-opacity="0.9" letter-spacing="2">FLAGSHIP</text>
  <g transform="translate(350,70)">
    <text font-family="monospace" font-size="7.5" fill="#e8872c" fill-opacity="0.5" letter-spacing="1.5">PERFORMANCE+ PANEL</text>
    <g transform="translate(0,20)"><text font-family="monospace" font-size="7" fill="#8899aa">TESTOSTERONE (FREE)</text><rect x="0" y="6" width="180" height="3" rx="1.5" fill="#221a0a"/><rect x="0" y="6" width="157" height="3" rx="1.5" fill="#e8872c" fill-opacity="0.8"/></g>
    <g transform="translate(0,40)"><text font-family="monospace" font-size="7" fill="#8899aa">IGF-1 / GH AXIS</text><rect x="0" y="6" width="180" height="3" rx="1.5" fill="#221a0a"/><rect x="0" y="6" width="126" height="3" rx="1.5" fill="#e8872c" fill-opacity="0.65"/></g>
    <g transform="translate(0,60)"><text font-family="monospace" font-size="7" fill="#8899aa">METABOLIC PANEL</text><rect x="0" y="6" width="180" height="3" rx="1.5" fill="#221a0a"/><rect x="0" y="6" width="108" height="3" rx="1.5" fill="#e8872c" fill-opacity="0.6"/></g>
    <g transform="translate(0,80)"><text font-family="monospace" font-size="7" fill="#8899aa">BODY COMPOSITION</text><rect x="0" y="6" width="180" height="3" rx="1.5" fill="#221a0a"/><rect x="0" y="6" width="144" height="3" rx="1.5" fill="#e8872c" fill-opacity="0.7"/></g>
    <g transform="translate(0,100)"><text font-family="monospace" font-size="7" fill="#8899aa">CARDIAC MARKERS</text><rect x="0" y="6" width="180" height="3" rx="1.5" fill="#221a0a"/><rect x="0" y="6" width="90" height="3" rx="1.5" fill="#e8872c" fill-opacity="0.55"/></g>
    <polyline points="0,140 16,140 24,110 34,164 44,114 54,140 100,140 110,126 118,154 128,140 180,140" fill="none" stroke="#e8872c" stroke-opacity="0.55" stroke-width="1.2"/>
  </g>
  <text x="24" y="322" font-family="monospace" font-size="7.5" fill="#e8872c" fill-opacity="0.35" letter-spacing="2">PERFORMANCE+ · APEX METABOLIC HEALTH</text>
</svg>
