<svg viewBox="0 0 600 340" xmlns="http://www.w3.org/2000/svg">
  <defs>
    <radialGradient id="bg" cx="30%" cy="50%" r="80%"><stop offset="0%" stop-color="#0d1828"/><stop offset="100%" stop-color="#07090f"/></radialGradient>
    <radialGradient id="glow" cx="25%" cy="50%" r="55%"><stop offset="0%" stop-color="#2C74E8" stop-opacity="0.28"/><stop offset="100%" stop-color="#2C74E8" stop-opacity="0"/></radialGradient>
  </defs>
  <rect width="600" height="340" fill="url(#bg)"/>
  <rect width="600" height="340" fill="url(#glow)"/>
  <g stroke="#2C74E8" stroke-opacity="0.05" stroke-width="0.5">
    <line x1="0" y1="68" x2="600" y2="68"/><line x1="0" y1="136" x2="600" y2="136"/>
    <line x1="0" y1="204" x2="600" y2="204"/><line x1="0" y1="272" x2="600" y2="272"/>
    <line x1="100" y1="0" x2="100" y2="340"/><line x1="200" y1="0" x2="200" y2="340"/>
    <line x1="300" y1="0" x2="300" y2="340"/><line x1="400" y1="0" x2="400" y2="340"/>
    <line x1="500" y1="0" x2="500" y2="340"/>
  </g>
  <circle cx="200" cy="170" r="110" fill="none" stroke="#2C74E8" stroke-opacity="0.08" stroke-width="1"/>
  <circle cx="200" cy="170" r="78" fill="none" stroke="#2C74E8" stroke-opacity="0.13" stroke-width="1"/>
  <circle cx="200" cy="170" r="46" fill="none" stroke="#2C74E8" stroke-opacity="0.22" stroke-width="1.2"/>
  <circle cx="200" cy="170" r="16" fill="#2C74E8" fill-opacity="0.12" stroke="#2C74E8" stroke-opacity="0.8" stroke-width="1.5"/>
  <circle cx="200" cy="92" r="6" fill="#2C74E8" fill-opacity="0.9"/>
  <circle cx="266" cy="209" r="5" fill="#2C74E8" fill-opacity="0.7"/>
  <circle cx="134" cy="209" r="5" fill="#2C74E8" fill-opacity="0.6"/>
  <circle cx="246" cy="108" r="4" fill="#2C74E8" fill-opacity="0.5"/>
  <circle cx="154" cy="108" r="4" fill="#2C74E8" fill-opacity="0.5"/>
  <line x1="200" y1="92" x2="266" y2="209" stroke="#2C74E8" stroke-opacity="0.18" stroke-width="0.8"/>
  <line x1="200" y1="92" x2="134" y2="209" stroke="#2C74E8" stroke-opacity="0.18" stroke-width="0.8"/>
  <line x1="266" y1="209" x2="134" y2="209" stroke="#2C74E8" stroke-opacity="0.12" stroke-width="0.8"/>
  <g transform="translate(350,70)">
    <text font-family="monospace" font-size="7.5" fill="#2C74E8" fill-opacity="0.5" letter-spacing="1.5">BIOMARKER PANEL</text>
    <g transform="translate(0,20)"><text font-family="monospace" font-size="7" fill="#8899aa">TESTOSTERONE</text><rect x="0" y="6" width="180" height="3" rx="1.5" fill="#1a2540"/><rect x="0" y="6" width="133" height="3" rx="1.5" fill="#2C74E8" fill-opacity="0.75"/></g>
    <g transform="translate(0,40)"><text font-family="monospace" font-size="7" fill="#8899aa">OESTRADIOL</text><rect x="0" y="6" width="180" height="3" rx="1.5" fill="#1a2540"/><rect x="0" y="6" width="61" height="3" rx="1.5" fill="#2C74E8" fill-opacity="0.5"/></g>
    <g transform="translate(0,60)"><text font-family="monospace" font-size="7" fill="#8899aa">SHBG</text><rect x="0" y="6" width="180" height="3" rx="1.5" fill="#1a2540"/><rect x="0" y="6" width="99" height="3" rx="1.5" fill="#2C74E8" fill-opacity="0.6"/></g>
    <g transform="translate(0,80)"><text font-family="monospace" font-size="7" fill="#8899aa">LH / FSH</text><rect x="0" y="6" width="180" height="3" rx="1.5" fill="#1a2540"/><rect x="0" y="6" width="79" height="3" rx="1.5" fill="#2C74E8" fill-opacity="0.55"/></g>
    <g transform="translate(0,100)"><text font-family="monospace" font-size="7" fill="#8899aa">CORTISOL</text><rect x="0" y="6" width="180" height="3" rx="1.5" fill="#1a2540"/><rect x="0" y="6" width="108" height="3" rx="1.5" fill="#2C74E8" fill-opacity="0.65"/></g>
    <polyline points="0,140 22,140 29,118 37,158 44,122 52,140 90,140 97,132 104,148 112,140 180,140" fill="none" stroke="#2C74E8" stroke-opacity="0.55" stroke-width="1.2"/>
  </g>
  <text x="24" y="322" font-family="monospace" font-size="7.5" fill="#2C74E8" fill-opacity="0.35" letter-spacing="2">HORMONE OPTIMISATION · APEX METABOLIC HEALTH</text>
</svg>
