<svg viewBox="0 0 600 340" xmlns="http://www.w3.org/2000/svg">
  <defs>
    <radialGradient id="bg" cx="30%" cy="50%" r="80%"><stop offset="0%" stop-color="#0c0a1c"/><stop offset="100%" stop-color="#08080e"/></radialGradient>
    <radialGradient id="glow" cx="25%" cy="50%" r="55%"><stop offset="0%" stop-color="#5c2ce8" stop-opacity="0.24"/><stop offset="100%" stop-color="#5c2ce8" stop-opacity="0"/></radialGradient>
  </defs>
  <rect width="600" height="340" fill="url(#bg)"/>
  <rect width="600" height="340" fill="url(#glow)"/>
  <g stroke="#5c2ce8" stroke-opacity="0.05" stroke-width="0.5">
    <line x1="0" y1="68" x2="600" y2="68"/><line x1="0" y1="136" x2="600" y2="136"/>
    <line x1="0" y1="204" x2="600" y2="204"/><line x1="0" y1="272" x2="600" y2="272"/>
    <line x1="100" y1="0" x2="100" y2="340"/><line x1="200" y1="0" x2="200" y2="340"/>
    <line x1="300" y1="0" x2="300" y2="340"/><line x1="400" y1="0" x2="400" y2="340"/>
    <line x1="500" y1="0" x2="500" y2="340"/>
  </g>
  <!-- Infinity / longevity loop -->
  <path d="M140,170 C140,130 168,110 200,130 C232,150 248,150 280,130 C312,110 340,130 340,170 C340,210 312,230 280,210 C248,190 232,190 200,210 C168,230 140,210 140,170 Z" fill="none" stroke="#5c2ce8" stroke-opacity="0.45" stroke-width="2"/>
  <circle cx="200" cy="155" r="8" fill="#5c2ce8" fill-opacity="0.3" stroke="#5c2ce8" stroke-opacity="0.7" stroke-width="1.2"/>
  <circle cx="280" cy="155" r="8" fill="#5c2ce8" fill-opacity="0.3" stroke="#5c2ce8" stroke-opacity="0.7" stroke-width="1.2"/>
  <!-- Orbital rings -->
  <circle cx="200" cy="170" r="108" fill="none" stroke="#5c2ce8" stroke-opacity="0.07" stroke-width="1"/>
  <circle cx="200" cy="170" r="78" fill="none" stroke="#5c2ce8" stroke-opacity="0.09" stroke-width="1"/>
  <!-- Coming soon badge -->
  <rect x="148" y="220" width="104" height="22" rx="3" fill="#5c2ce8" fill-opacity="0.1" stroke="#5c2ce8" stroke-opacity="0.35" stroke-width="1"/>
  <text x="200" y="235" text-anchor="middle" font-family="monospace" font-size="7.5" fill="#5c2ce8" fill-opacity="0.8" letter-spacing="1.5">COMING SOON</text>
  <!-- Right panel -->
  <g transform="translate(370,70)">
    <text font-family="monospace" font-size="7.5" fill="#5c2ce8" fill-opacity="0.5" letter-spacing="1.5">LONGEVITY PANEL</text>
    <g transform="translate(0,20)"><text font-family="monospace" font-size="7" fill="#8899aa">TELOMERE LENGTH</text><rect x="0" y="6" width="170" height="3" rx="1.5" fill="#14102a"/><rect x="0" y="6" width="119" height="3" rx="1.5" fill="#5c2ce8" fill-opacity="0.65"/></g>
    <g transform="translate(0,40)"><text font-family="monospace" font-size="7" fill="#8899aa">NAD+ MARKERS</text><rect x="0" y="6" width="170" height="3" rx="1.5" fill="#14102a"/><rect x="0" y="6" width="85" height="3" rx="1.5" fill="#5c2ce8" fill-opacity="0.55"/></g>
    <g transform="translate(0,60)"><text font-family="monospace" font-size="7" fill="#8899aa">CARDIOVASCULAR</text><rect x="0" y="6" width="170" height="3" rx="1.5" fill="#14102a"/><rect x="0" y="6" width="136" height="3" rx="1.5" fill="#5c2ce8" fill-opacity="0.7"/></g>
    <g transform="translate(0,80)"><text font-family="monospace" font-size="7" fill="#8899aa">HORMONAL AXIS</text><rect x="0" y="6" width="170" height="3" rx="1.5" fill="#14102a"/><rect x="0" y="6" width="102" height="3" rx="1.5" fill="#5c2ce8" fill-opacity="0.6"/></g>
    <g transform="translate(0,100)"><text font-family="monospace" font-size="7" fill="#8899aa">EPIGENETIC AGE</text><rect x="0" y="6" width="170" height="3" rx="1.5" fill="#14102a"/><rect x="0" y="6" width="68" height="3" rx="1.5" fill="#5c2ce8" fill-opacity="0.48"/></g>
    <polyline points="0,140 18,140 26,116 36,158 46,118 56,140 95,140 104,130 112,150 122,140 170,140" fill="none" stroke="#5c2ce8" stroke-opacity="0.55" stroke-width="1.2"/>
  </g>
  <text x="24" y="322" font-family="monospace" font-size="7.5" fill="#5c2ce8" fill-opacity="0.35" letter-spacing="2">LONGEVITY PROTOCOL · APEX METABOLIC HEALTH</text>
</svg>
