<svg viewBox="0 0 600 340" xmlns="http://www.w3.org/2000/svg">
  <defs>
    <radialGradient id="bg" cx="30%" cy="50%" r="80%"><stop offset="0%" stop-color="#1a0d0d"/><stop offset="100%" stop-color="#09080f"/></radialGradient>
    <radialGradient id="glow" cx="25%" cy="50%" r="55%"><stop offset="0%" stop-color="#e05252" stop-opacity="0.24"/><stop offset="100%" stop-color="#e05252" stop-opacity="0"/></radialGradient>
  </defs>
  <rect width="600" height="340" fill="url(#bg)"/>
  <rect width="600" height="340" fill="url(#glow)"/>
  <g stroke="#e05252" stroke-opacity="0.05" stroke-width="0.5">
    <line x1="0" y1="68" x2="600" y2="68"/><line x1="0" y1="136" x2="600" y2="136"/>
    <line x1="0" y1="204" x2="600" y2="204"/><line x1="0" y1="272" x2="600" y2="272"/>
    <line x1="100" y1="0" x2="100" y2="340"/><line x1="200" y1="0" x2="200" y2="340"/>
    <line x1="300" y1="0" x2="300" y2="340"/><line x1="400" y1="0" x2="400" y2="340"/>
    <line x1="500" y1="0" x2="500" y2="340"/>
  </g>
  <!-- Lightning bolt / performance -->
  <path d="M210 60 L170 190 L200 190 L175 280 L260 150 L228 150 Z" fill="#e05252" fill-opacity="0.08" stroke="#e05252" stroke-opacity="0.5" stroke-width="1.5" stroke-linejoin="round"/>
  <!-- Outer rings -->
  <circle cx="210" cy="170" r="105" fill="none" stroke="#e05252" stroke-opacity="0.07" stroke-width="1"/>
  <circle cx="210" cy="170" r="75" fill="none" stroke="#e05252" stroke-opacity="0.1" stroke-width="1"/>
  <!-- Performance bars right -->
  <g transform="translate(350,70)">
    <text font-family="monospace" font-size="7.5" fill="#e05252" fill-opacity="0.5" letter-spacing="1.5">PERFORMANCE PANEL</text>
    <g transform="translate(0,20)"><text font-family="monospace" font-size="7" fill="#8899aa">TESTOSTERONE (FREE)</text><rect x="0" y="6" width="180" height="3" rx="1.5" fill="#2a1a1a"/><rect x="0" y="6" width="148" height="3" rx="1.5" fill="#e05252" fill-opacity="0.75"/></g>
    <g transform="translate(0,40)"><text font-family="monospace" font-size="7" fill="#8899aa">IGF-1</text><rect x="0" y="6" width="180" height="3" rx="1.5" fill="#2a1a1a"/><rect x="0" y="6" width="108" height="3" rx="1.5" fill="#e05252" fill-opacity="0.6"/></g>
    <g transform="translate(0,60)"><text font-family="monospace" font-size="7" fill="#8899aa">GROWTH HORMONE</text><rect x="0" y="6" width="180" height="3" rx="1.5" fill="#2a1a1a"/><rect x="0" y="6" width="81" height="3" rx="1.5" fill="#e05252" fill-opacity="0.5"/></g>
    <g transform="translate(0,80)"><text font-family="monospace" font-size="7" fill="#8899aa">CORTISOL</text><rect x="0" y="6" width="180" height="3" rx="1.5" fill="#2a1a1a"/><rect x="0" y="6" width="63" height="3" rx="1.5" fill="#e05252" fill-opacity="0.45"/></g>
    <g transform="translate(0,100)"><text font-family="monospace" font-size="7" fill="#8899aa">HAEMATOCRIT</text><rect x="0" y="6" width="180" height="3" rx="1.5" fill="#2a1a1a"/><rect x="0" y="6" width="117" height="3" rx="1.5" fill="#e05252" fill-opacity="0.65"/></g>
    <polyline points="0,140 18,140 26,112 36,162 46,118 56,140 100,140 108,128 116,152 126,140 180,140" fill="none" stroke="#e05252" stroke-opacity="0.55" stroke-width="1.2"/>
  </g>
  <text x="24" y="322" font-family="monospace" font-size="7.5" fill="#e05252" fill-opacity="0.35" letter-spacing="2">HORMONE + PERFORMANCE · APEX METABOLIC HEALTH</text>
</svg>
