<svg viewBox="0 0 600 340" xmlns="http://www.w3.org/2000/svg">
  <defs>
    <radialGradient id="bg" cx="30%" cy="50%" r="80%"><stop offset="0%" stop-color="#100d1a"/><stop offset="100%" stop-color="#08080f"/></radialGradient>
    <radialGradient id="glow" cx="25%" cy="50%" r="55%"><stop offset="0%" stop-color="#7c52e8" stop-opacity="0.26"/><stop offset="100%" stop-color="#7c52e8" stop-opacity="0"/></radialGradient>
  </defs>
  <rect width="600" height="340" fill="url(#bg)"/>
  <rect width="600" height="340" fill="url(#glow)"/>
  <g stroke="#7c52e8" stroke-opacity="0.05" stroke-width="0.5">
    <line x1="0" y1="68" x2="600" y2="68"/><line x1="0" y1="136" x2="600" y2="136"/>
    <line x1="0" y1="204" x2="600" y2="204"/><line x1="0" y1="272" x2="600" y2="272"/>
    <line x1="100" y1="0" x2="100" y2="340"/><line x1="200" y1="0" x2="200" y2="340"/>
    <line x1="300" y1="0" x2="300" y2="340"/><line x1="400" y1="0" x2="400" y2="340"/>
    <line x1="500" y1="0" x2="500" y2="340"/>
  </g>
  <!-- Metabolic graph — downward trend line -->
  <polyline points="60,100 100,108 140,115 180,130 220,138 260,148 290,155" fill="none" stroke="#7c52e8" stroke-opacity="0.6" stroke-width="2" stroke-linecap="round"/>
  <circle cx="60" cy="100" r="4" fill="#7c52e8" fill-opacity="0.8"/>
  <circle cx="290" cy="155" r="4" fill="#7c52e8" fill-opacity="0.9"/>
  <!-- Area fill under line -->
  <path d="M60,100 L100,108 L140,115 L180,130 L220,138 L260,148 L290,155 L290,280 L60,280 Z" fill="#7c52e8" fill-opacity="0.05"/>
  <!-- Grid for graph -->
  <line x1="60" y1="80" x2="60" y2="260" stroke="#7c52e8" stroke-opacity="0.15" stroke-width="0.7"/>
  <line x1="60" y1="260" x2="300" y2="260" stroke="#7c52e8" stroke-opacity="0.15" stroke-width="0.7"/>
  <!-- Tick marks -->
  <g stroke="#7c52e8" stroke-opacity="0.2" stroke-width="0.5">
    <line x1="55" y1="100" x2="65" y2="100"/><line x1="55" y1="140" x2="65" y2="140"/><line x1="55" y1="180" x2="65" y2="180"/><line x1="55" y1="220" x2="65" y2="220"/>
    <line x1="100" y1="255" x2="100" y2="265"/><line x1="150" y1="255" x2="150" y2="265"/><line x1="200" y1="255" x2="200" y2="265"/><line x1="250" y1="255" x2="250" y2="265"/>
  </g>
  <text x="28" y="103" font-family="monospace" font-size="6.5" fill="#7c52e8" fill-opacity="0.4">HIGH</text>
  <text x="35" y="263" font-family="monospace" font-size="6.5" fill="#7c52e8" fill-opacity="0.4">LOW</text>
  <!-- Right panel -->
  <g transform="translate(350,70)">
    <text font-family="monospace" font-size="7.5" fill="#7c52e8" fill-opacity="0.5" letter-spacing="1.5">METABOLIC MARKERS</text>
    <g transform="translate(0,20)"><text font-family="monospace" font-size="7" fill="#8899aa">INSULIN RESISTANCE</text><rect x="0" y="6" width="180" height="3" rx="1.5" fill="#1a1428"/><rect x="0" y="6" width="144" height="3" rx="1.5" fill="#7c52e8" fill-opacity="0.7"/></g>
    <g transform="translate(0,40)"><text font-family="monospace" font-size="7" fill="#8899aa">FASTING GLUCOSE</text><rect x="0" y="6" width="180" height="3" rx="1.5" fill="#1a1428"/><rect x="0" y="6" width="99" height="3" rx="1.5" fill="#7c52e8" fill-opacity="0.55"/></g>
    <g transform="translate(0,60)"><text font-family="monospace" font-size="7" fill="#8899aa">THYROID (TSH/T4)</text><rect x="0" y="6" width="180" height="3" rx="1.5" fill="#1a1428"/><rect x="0" y="6" width="72" height="3" rx="1.5" fill="#7c52e8" fill-opacity="0.48"/></g>
    <g transform="translate(0,80)"><text font-family="monospace" font-size="7" fill="#8899aa">LEPTIN</text><rect x="0" y="6" width="180" height="3" rx="1.5" fill="#1a1428"/><rect x="0" y="6" width="126" height="3" rx="1.5" fill="#7c52e8" fill-opacity="0.65"/></g>
    <g transform="translate(0,100)"><text font-family="monospace" font-size="7" fill="#8899aa">HbA1c</text><rect x="0" y="6" width="180" height="3" rx="1.5" fill="#1a1428"/><rect x="0" y="6" width="85" height="3" rx="1.5" fill="#7c52e8" fill-opacity="0.52"/></g>
    <polyline points="0,140 20,140 28,116 38,158 48,120 58,140 100,140 110,130 118,150 128,140 180,140" fill="none" stroke="#7c52e8" stroke-opacity="0.55" stroke-width="1.2"/>
  </g>
  <text x="24" y="322" font-family="monospace" font-size="7.5" fill="#7c52e8" fill-opacity="0.35" letter-spacing="2">METABOLIC OPTIMISATION · APEX METABOLIC HEALTH</text>
</svg>
