<svg viewBox="0 0 600 340" xmlns="http://www.w3.org/2000/svg">
  <defs>
    <radialGradient id="bg" cx="30%" cy="50%" r="80%"><stop offset="0%" stop-color="#0b160e"/><stop offset="100%" stop-color="#08090a"/></radialGradient>
    <radialGradient id="glow" cx="25%" cy="50%" r="55%"><stop offset="0%" stop-color="#2e9e52" stop-opacity="0.24"/><stop offset="100%" stop-color="#2e9e52" stop-opacity="0"/></radialGradient>
  </defs>
  <rect width="600" height="340" fill="url(#bg)"/>
  <rect width="600" height="340" fill="url(#glow)"/>
  <g stroke="#2e9e52" stroke-opacity="0.05" stroke-width="0.5">
    <line x1="0" y1="68" x2="600" y2="68"/><line x1="0" y1="136" x2="600" y2="136"/>
    <line x1="0" y1="204" x2="600" y2="204"/><line x1="0" y1="272" x2="600" y2="272"/>
    <line x1="100" y1="0" x2="100" y2="340"/><line x1="200" y1="0" x2="200" y2="340"/>
    <line x1="300" y1="0" x2="300" y2="340"/><line x1="400" y1="0" x2="400" y2="340"/>
    <line x1="500" y1="0" x2="500" y2="340"/>
  </g>
  <!-- Follicle structure — vertical strands growing upward -->
  <g stroke="#2e9e52" stroke-opacity="0.5" stroke-linecap="round">
    <line x1="140" y1="240" x2="138" y2="160" stroke-width="2"/>
    <line x1="160" y1="240" x2="162" y2="140" stroke-width="2.2"/>
    <line x1="180" y1="240" x2="179" y2="120" stroke-width="2.5"/>
    <line x1="200" y1="240" x2="200" y2="100" stroke-width="2.8"/>
    <line x1="220" y1="240" x2="221" y2="110" stroke-width="2.5"/>
    <line x1="240" y1="240" x2="238" y2="130" stroke-width="2.2"/>
    <line x1="260" y1="240" x2="262" y2="150" stroke-width="2"/>
  </g>
  <!-- Follicle bulbs -->
  <g fill="#2e9e52">
    <ellipse cx="138" cy="248" rx="5" ry="8" fill-opacity="0.5"/>
    <ellipse cx="162" cy="248" rx="6" ry="9" fill-opacity="0.6"/>
    <ellipse cx="179" cy="249" rx="7" ry="10" fill-opacity="0.7"/>
    <ellipse cx="200" cy="250" rx="8" ry="11" fill-opacity="0.8"/>
    <ellipse cx="221" cy="249" rx="7" ry="10" fill-opacity="0.7"/>
    <ellipse cx="238" cy="248" rx="6" ry="9" fill-opacity="0.6"/>
    <ellipse cx="262" cy="248" rx="5" ry="8" fill-opacity="0.5"/>
  </g>
  <!-- Scalp line -->
  <line x1="110" y1="240" x2="290" y2="240" stroke="#2e9e52" stroke-opacity="0.25" stroke-width="1"/>
  <!-- Outer rings -->
  <circle cx="200" cy="170" r="105" fill="none" stroke="#2e9e52" stroke-opacity="0.06" stroke-width="1"/>
  <!-- Right panel -->
  <g transform="translate(350,70)">
    <text font-family="monospace" font-size="7.5" fill="#2e9e52" fill-opacity="0.5" letter-spacing="1.5">HAIR PANEL</text>
    <g transform="translate(0,20)"><text font-family="monospace" font-size="7" fill="#8899aa">DHT (DIHYDROTESTOSTERONE)</text><rect x="0" y="6" width="180" height="3" rx="1.5" fill="#101a12"/><rect x="0" y="6" width="139" height="3" rx="1.5" fill="#2e9e52" fill-opacity="0.7"/></g>
    <g transform="translate(0,40)"><text font-family="monospace" font-size="7" fill="#8899aa">FERRITIN</text><rect x="0" y="6" width="180" height="3" rx="1.5" fill="#101a12"/><rect x="0" y="6" width="90" height="3" rx="1.5" fill="#2e9e52" fill-opacity="0.55"/></g>
    <g transform="translate(0,60)"><text font-family="monospace" font-size="7" fill="#8899aa">THYROID (TSH)</text><rect x="0" y="6" width="180" height="3" rx="1.5" fill="#101a12"/><rect x="0" y="6" width="72" height="3" rx="1.5" fill="#2e9e52" fill-opacity="0.48"/></g>
    <g transform="translate(0,80)"><text font-family="monospace" font-size="7" fill="#8899aa">ZINC / B12</text><rect x="0" y="6" width="180" height="3" rx="1.5" fill="#101a12"/><rect x="0" y="6" width="108" height="3" rx="1.5" fill="#2e9e52" fill-opacity="0.6"/></g>
    <g transform="translate(0,100)"><text font-family="monospace" font-size="7" fill="#8899aa">TESTOSTERONE</text><rect x="0" y="6" width="180" height="3" rx="1.5" fill="#101a12"/><rect x="0" y="6" width="126" height="3" rx="1.5" fill="#2e9e52" fill-opacity="0.65"/></g>
    <polyline points="0,140 20,140 28,118 38,156 48,122 58,140 100,140 108,132 116,148 126,140 180,140" fill="none" stroke="#2e9e52" stroke-opacity="0.55" stroke-width="1.2"/>
  </g>
  <text x="24" y="322" font-family="monospace" font-size="7.5" fill="#2e9e52" fill-opacity="0.35" letter-spacing="2">HAIR RESTORATION · APEX METABOLIC HEALTH</text>
</svg>
