<svg xmlns="http://www.w3.org/2000/svg" viewBox="0 0 800 440">
  <defs>
    <filter id="glow" x="-50%" y="-50%" width="200%" height="200%">
      <feGaussianBlur stdDeviation="5" result="blur"/>
      <feMerge><feMergeNode in="blur"/><feMergeNode in="SourceGraphic"/></feMerge>
    </filter>
    <filter id="softglow" x="-50%" y="-50%" width="200%" height="200%">
      <feGaussianBlur stdDeviation="3" result="blur"/>
      <feMerge><feMergeNode in="blur"/><feMergeNode in="SourceGraphic"/></feMerge>
    </filter>
    <filter id="heavyblur" x="-50%" y="-50%" width="200%" height="200%">
      <feGaussianBlur stdDeviation="30"/>
    </filter>
    <radialGradient id="nucleus" cx="50%" cy="50%" r="50%">
      <stop offset="0%" stop-color="rgba(169,199,255,0.5)"/>
      <stop offset="100%" stop-color="rgba(169,199,255,0)"/>
    </radialGradient>
    <radialGradient id="nucleusActive" cx="50%" cy="50%" r="50%">
      <stop offset="0%" stop-color="rgba(169,199,255,0.8)"/>
      <stop offset="100%" stop-color="rgba(72,144,247,0)"/>
    </radialGradient>
    <radialGradient id="goldSweep" cx="20%" cy="20%" r="60%">
      <stop offset="0%" stop-color="#c9a84c" stop-opacity="0.08"/>
      <stop offset="100%" stop-color="#c9a84c" stop-opacity="0"/>
    </radialGradient>
  </defs>

  <rect width="800" height="440" fill="#0a1018"/>

  <!-- Golden diagonal sweep -->
  <ellipse cx="180" cy="140" rx="300" ry="100" fill="url(#goldSweep)" filter="url(#heavyblur)"/>

  <!-- Hexagonal grid — manually placed for precision -->
  <!-- Row 0 (y~36) -->
  <polygon points="56,8 84,8 98,32 84,56 56,56 42,32" fill="rgba(72,144,247,0.04)" stroke="rgba(169,199,255,0.15)" stroke-width="0.8"/>
  <polygon points="112,8 140,8 154,32 140,56 112,56 98,32" fill="rgba(72,144,247,0.04)" stroke="rgba(169,199,255,0.15)" stroke-width="0.8"/>
  <polygon points="168,8 196,8 210,32 196,56 168,56 154,32" fill="rgba(72,144,247,0.05)" stroke="rgba(169,199,255,0.15)" stroke-width="0.8"/>
  <polygon points="224,8 252,8 266,32 252,56 224,56 210,32" fill="rgba(72,144,247,0.04)" stroke="rgba(169,199,255,0.15)" stroke-width="0.8"/>
  <polygon points="280,8 308,8 322,32 308,56 280,56 266,32" fill="rgba(72,144,247,0.05)" stroke="rgba(169,199,255,0.15)" stroke-width="0.8"/>
  <polygon points="336,8 364,8 378,32 364,56 336,56 322,32" fill="rgba(72,144,247,0.04)" stroke="rgba(169,199,255,0.15)" stroke-width="0.8"/>
  <polygon points="392,8 420,8 434,32 420,56 392,56 378,32" fill="rgba(72,144,247,0.04)" stroke="rgba(169,199,255,0.15)" stroke-width="0.8"/>
  <polygon points="448,8 476,8 490,32 476,56 448,56 434,32" fill="rgba(72,144,247,0.04)" stroke="rgba(169,199,255,0.15)" stroke-width="0.8"/>
  <polygon points="504,8 532,8 546,32 532,56 504,56 490,32" fill="rgba(72,144,247,0.04)" stroke="rgba(169,199,255,0.15)" stroke-width="0.8"/>
  <polygon points="560,8 588,8 602,32 588,56 560,56 546,32" fill="rgba(72,144,247,0.04)" stroke="rgba(169,199,255,0.15)" stroke-width="0.8"/>
  <polygon points="616,8 644,8 658,32 644,56 616,56 602,32" fill="rgba(72,144,247,0.04)" stroke="rgba(169,199,255,0.15)" stroke-width="0.8"/>
  <polygon points="672,8 700,8 714,32 700,56 672,56 658,32" fill="rgba(72,144,247,0.04)" stroke="rgba(169,199,255,0.15)" stroke-width="0.8"/>
  <polygon points="728,8 756,8 770,32 756,56 728,56 714,32" fill="rgba(72,144,247,0.04)" stroke="rgba(169,199,255,0.15)" stroke-width="0.8"/>

  <!-- Row 1 (y~84, offset) -->
  <polygon points="28,56 56,56 70,80 56,104 28,104 14,80" fill="rgba(72,144,247,0.05)" stroke="rgba(169,199,255,0.15)" stroke-width="0.8"/>
  <polygon points="84,56 112,56 126,80 112,104 84,104 70,80" fill="rgba(72,144,247,0.06)" stroke="rgba(169,199,255,0.15)" stroke-width="0.8"/>
  <polygon points="140,56 168,56 182,80 168,104 140,104 126,80" fill="rgba(72,144,247,0.07)" stroke="rgba(169,199,255,0.15)" stroke-width="0.8"/>
  <polygon points="196,56 224,56 238,80 224,104 196,104 182,80" fill="rgba(72,144,247,0.06)" stroke="rgba(169,199,255,0.15)" stroke-width="0.8"/>
  <polygon points="252,56 280,56 294,80 280,104 252,104 238,80" fill="rgba(72,144,247,0.07)" stroke="rgba(169,199,255,0.15)" stroke-width="0.8"/>
  <polygon points="308,56 336,56 350,80 336,104 308,104 294,80" fill="rgba(72,144,247,0.06)" stroke="rgba(169,199,255,0.15)" stroke-width="0.8"/>
  <polygon points="364,56 392,56 406,80 392,104 364,104 350,80" fill="rgba(72,144,247,0.07)" stroke="rgba(169,199,255,0.15)" stroke-width="0.8"/>
  <polygon points="420,56 448,56 462,80 448,104 420,104 406,80" fill="rgba(72,144,247,0.06)" stroke="rgba(169,199,255,0.15)" stroke-width="0.8"/>
  <polygon points="476,56 504,56 518,80 504,104 476,104 462,80" fill="rgba(72,144,247,0.06)" stroke="rgba(169,199,255,0.15)" stroke-width="0.8"/>
  <polygon points="532,56 560,56 574,80 560,104 532,104 518,80" fill="rgba(72,144,247,0.06)" stroke="rgba(169,199,255,0.15)" stroke-width="0.8"/>
  <polygon points="588,56 616,56 630,80 616,104 588,104 574,80" fill="rgba(72,144,247,0.05)" stroke="rgba(169,199,255,0.15)" stroke-width="0.8"/>
  <polygon points="644,56 672,56 686,80 672,104 644,104 630,80" fill="rgba(72,144,247,0.05)" stroke="rgba(169,199,255,0.15)" stroke-width="0.8"/>
  <polygon points="700,56 728,56 742,80 728,104 700,104 686,80" fill="rgba(72,144,247,0.05)" stroke="rgba(169,199,255,0.15)" stroke-width="0.8"/>
  <polygon points="756,56 784,56 798,80 784,104 756,104 742,80" fill="rgba(72,144,247,0.04)" stroke="rgba(169,199,255,0.15)" stroke-width="0.8"/>

  <!-- Row 2 (y~132) -->
  <polygon points="56,104 84,104 98,128 84,152 56,152 42,128" fill="rgba(72,144,247,0.07)" stroke="rgba(169,199,255,0.15)" stroke-width="0.8"/>
  <polygon points="112,104 140,104 154,128 140,152 112,152 98,128" fill="rgba(72,144,247,0.09)" stroke="rgba(169,199,255,0.15)" stroke-width="0.8"/>
  <polygon points="168,104 196,104 210,128 196,152 168,152 154,128" fill="rgba(72,144,247,0.1)" stroke="rgba(169,199,255,0.18)" stroke-width="0.8"/>
  <polygon points="224,104 252,104 266,128 252,152 224,152 210,128" fill="rgba(72,144,247,0.09)" stroke="rgba(169,199,255,0.18)" stroke-width="0.8"/>
  <polygon points="280,104 308,104 322,128 308,152 280,152 266,128" fill="rgba(72,144,247,0.1)" stroke="rgba(169,199,255,0.18)" stroke-width="0.8"/>
  <polygon points="336,104 364,104 378,128 364,152 336,152 322,128" fill="rgba(72,144,247,0.1)" stroke="rgba(169,199,255,0.18)" stroke-width="0.8"/>
  <polygon points="392,104 420,104 434,128 420,152 392,152 378,128" fill="rgba(72,144,247,0.1)" stroke="rgba(169,199,255,0.18)" stroke-width="0.8"/>
  <polygon points="448,104 476,104 490,128 476,152 448,152 434,128" fill="rgba(72,144,247,0.09)" stroke="rgba(169,199,255,0.15)" stroke-width="0.8"/>
  <polygon points="504,104 532,104 546,128 532,152 504,152 490,128" fill="rgba(72,144,247,0.09)" stroke="rgba(169,199,255,0.15)" stroke-width="0.8"/>
  <polygon points="560,104 588,104 602,128 588,152 560,152 546,128" fill="rgba(72,144,247,0.08)" stroke="rgba(169,199,255,0.15)" stroke-width="0.8"/>
  <polygon points="616,104 644,104 658,128 644,152 616,152 602,128" fill="rgba(72,144,247,0.07)" stroke="rgba(169,199,255,0.15)" stroke-width="0.8"/>
  <polygon points="672,104 700,104 714,128 700,152 672,152 658,128" fill="rgba(72,144,247,0.07)" stroke="rgba(169,199,255,0.15)" stroke-width="0.8"/>
  <polygon points="728,104 756,104 770,128 756,152 728,152 714,128" fill="rgba(72,144,247,0.06)" stroke="rgba(169,199,255,0.15)" stroke-width="0.8"/>

  <!-- Row 3 — active zone top (y~180) -->
  <polygon points="28,152 56,152 70,176 56,200 28,200 14,176" fill="rgba(72,144,247,0.12)" stroke="rgba(169,199,255,0.2)" stroke-width="0.8"/>
  <polygon points="84,152 112,152 126,176 112,200 84,200 70,176" fill="rgba(72,144,247,0.14)" stroke="rgba(169,199,255,0.22)" stroke-width="0.8"/>
  <polygon points="140,152 168,152 182,176 168,200 140,200 126,176" fill="rgba(72,144,247,0.16)" stroke="rgba(169,199,255,0.25)" stroke-width="0.8"/>
  <polygon points="196,152 224,152 238,176 224,200 196,200 182,176" fill="rgba(72,144,247,0.18)" stroke="rgba(169,199,255,0.28)" stroke-width="0.8"/>
  <polygon points="252,152 280,152 294,176 280,200 252,200 238,176" fill="rgba(72,144,247,0.2)" stroke="rgba(169,199,255,0.3)" stroke-width="0.8"/>
  <polygon points="308,152 336,152 350,176 336,200 308,200 294,176" fill="rgba(72,144,247,0.2)" stroke="rgba(169,199,255,0.3)" stroke-width="0.8"/>
  <polygon points="364,152 392,152 406,176 392,200 364,200 350,176" fill="rgba(72,144,247,0.2)" stroke="rgba(169,199,255,0.3)" stroke-width="0.8"/>
  <polygon points="420,152 448,152 462,176 448,200 420,200 406,176" fill="rgba(72,144,247,0.2)" stroke="rgba(169,199,255,0.3)" stroke-width="0.8"/>
  <polygon points="476,152 504,152 518,176 504,200 476,200 462,176" fill="rgba(72,144,247,0.2)" stroke="rgba(169,199,255,0.3)" stroke-width="0.8"/>
  <polygon points="532,152 560,152 574,176 560,200 532,200 518,176" fill="rgba(72,144,247,0.18)" stroke="rgba(169,199,255,0.25)" stroke-width="0.8"/>
  <polygon points="588,152 616,152 630,176 616,200 588,200 574,176" fill="rgba(72,144,247,0.16)" stroke="rgba(169,199,255,0.22)" stroke-width="0.8"/>
  <polygon points="644,152 672,152 686,176 672,200 644,200 630,176" fill="rgba(72,144,247,0.14)" stroke="rgba(169,199,255,0.2)" stroke-width="0.8"/>
  <polygon points="700,152 728,152 742,176 728,200 700,200 686,176" fill="rgba(72,144,247,0.12)" stroke="rgba(169,199,255,0.18)" stroke-width="0.8"/>

  <!-- Row 4 — active zone core (y~228) -->
  <polygon points="56,200 84,200 98,224 84,248 56,248 42,224" fill="rgba(72,144,247,0.16)" stroke="rgba(169,199,255,0.25)" stroke-width="0.8"/>
  <polygon points="112,200 140,200 154,224 140,248 112,248 98,224" fill="rgba(72,144,247,0.2)" stroke="rgba(169,199,255,0.3)" stroke-width="0.8"/>
  <polygon points="168,200 196,200 210,224 196,248 168,248 154,224" fill="rgba(72,144,247,0.22)" stroke="rgba(169,199,255,0.35)" stroke-width="0.9"/>
  <polygon points="224,200 252,200 266,224 252,248 224,248 210,224" fill="rgba(72,144,247,0.22)" stroke="rgba(169,199,255,0.35)" stroke-width="0.9"/>
  <polygon points="280,200 308,200 322,224 308,248 280,248 266,224" fill="rgba(72,144,247,0.22)" stroke="rgba(169,199,255,0.35)" stroke-width="0.9"/>
  <polygon points="336,200 364,200 378,224 364,248 336,248 322,224" fill="rgba(72,144,247,0.22)" stroke="rgba(169,199,255,0.35)" stroke-width="0.9"/>
  <polygon points="392,200 420,200 434,224 420,248 392,248 378,224" fill="rgba(72,144,247,0.22)" stroke="rgba(169,199,255,0.35)" stroke-width="0.9"/>
  <polygon points="448,200 476,200 490,224 476,248 448,248 434,224" fill="rgba(72,144,247,0.22)" stroke="rgba(169,199,255,0.35)" stroke-width="0.9"/>
  <polygon points="504,200 532,200 546,224 532,248 504,248 490,224" fill="rgba(72,144,247,0.22)" stroke="rgba(169,199,255,0.35)" stroke-width="0.9"/>
  <polygon points="560,200 588,200 602,224 588,248 560,248 546,224" fill="rgba(72,144,247,0.2)" stroke="rgba(169,199,255,0.3)" stroke-width="0.8"/>
  <polygon points="616,200 644,200 658,224 644,248 616,248 602,224" fill="rgba(72,144,247,0.18)" stroke="rgba(169,199,255,0.25)" stroke-width="0.8"/>
  <polygon points="672,200 700,200 714,224 700,248 672,248 658,224" fill="rgba(72,144,247,0.16)" stroke="rgba(169,199,255,0.22)" stroke-width="0.8"/>
  <polygon points="728,200 756,200 770,224 756,248 728,248 714,224" fill="rgba(72,144,247,0.14)" stroke="rgba(169,199,255,0.2)" stroke-width="0.8"/>

  <!-- Row 5 — active zone bottom (y~276) -->
  <polygon points="28,248 56,248 70,272 56,296 28,296 14,272" fill="rgba(72,144,247,0.12)" stroke="rgba(169,199,255,0.2)" stroke-width="0.8"/>
  <polygon points="84,248 112,248 126,272 112,296 84,296 70,272" fill="rgba(72,144,247,0.14)" stroke="rgba(169,199,255,0.22)" stroke-width="0.8"/>
  <polygon points="140,248 168,248 182,272 168,296 140,296 126,272" fill="rgba(72,144,247,0.16)" stroke="rgba(169,199,255,0.25)" stroke-width="0.8"/>
  <polygon points="196,248 224,248 238,272 224,296 196,296 182,272" fill="rgba(72,144,247,0.18)" stroke="rgba(169,199,255,0.28)" stroke-width="0.8"/>
  <polygon points="252,248 280,248 294,272 280,296 252,296 238,272" fill="rgba(72,144,247,0.18)" stroke="rgba(169,199,255,0.28)" stroke-width="0.8"/>
  <polygon points="308,248 336,248 350,272 336,296 308,296 294,272" fill="rgba(72,144,247,0.18)" stroke="rgba(169,199,255,0.28)" stroke-width="0.8"/>
  <polygon points="364,248 392,248 406,272 392,296 364,296 350,272" fill="rgba(72,144,247,0.18)" stroke="rgba(169,199,255,0.28)" stroke-width="0.8"/>
  <polygon points="420,248 448,248 462,272 448,296 420,296 406,272" fill="rgba(72,144,247,0.18)" stroke="rgba(169,199,255,0.28)" stroke-width="0.8"/>
  <polygon points="476,248 504,248 518,272 504,296 476,296 462,272" fill="rgba(72,144,247,0.16)" stroke="rgba(169,199,255,0.25)" stroke-width="0.8"/>
  <polygon points="532,248 560,248 574,272 560,296 532,296 518,272" fill="rgba(72,144,247,0.15)" stroke="rgba(169,199,255,0.22)" stroke-width="0.8"/>
  <polygon points="588,248 616,248 630,272 616,296 588,296 574,272" fill="rgba(72,144,247,0.13)" stroke="rgba(169,199,255,0.2)" stroke-width="0.8"/>
  <polygon points="644,248 672,248 686,272 672,296 644,296 630,272" fill="rgba(72,144,247,0.12)" stroke="rgba(169,199,255,0.18)" stroke-width="0.8"/>
  <polygon points="700,248 728,248 742,272 728,296 700,296 686,272" fill="rgba(72,144,247,0.1)" stroke="rgba(169,199,255,0.15)" stroke-width="0.8"/>

  <!-- Row 6 (y~324) -->
  <polygon points="56,296 84,296 98,320 84,344 56,344 42,320" fill="rgba(72,144,247,0.07)" stroke="rgba(169,199,255,0.12)" stroke-width="0.8"/>
  <polygon points="112,296 140,296 154,320 140,344 112,344 98,320" fill="rgba(72,144,247,0.08)" stroke="rgba(169,199,255,0.14)" stroke-width="0.8"/>
  <polygon points="168,296 196,296 210,320 196,344 168,344 154,320" fill="rgba(72,144,247,0.09)" stroke="rgba(169,199,255,0.15)" stroke-width="0.8"/>
  <polygon points="224,296 252,296 266,320 252,344 224,344 210,320" fill="rgba(72,144,247,0.08)" stroke="rgba(169,199,255,0.14)" stroke-width="0.8"/>
  <polygon points="280,296 308,296 322,320 308,344 280,344 266,320" fill="rgba(72,144,247,0.08)" stroke="rgba(169,199,255,0.14)" stroke-width="0.8"/>
  <polygon points="336,296 364,296 378,320 364,344 336,344 322,320" fill="rgba(72,144,247,0.08)" stroke="rgba(169,199,255,0.14)" stroke-width="0.8"/>
  <polygon points="392,296 420,296 434,320 420,344 392,344 378,320" fill="rgba(72,144,247,0.08)" stroke="rgba(169,199,255,0.14)" stroke-width="0.8"/>
  <polygon points="448,296 476,296 490,320 476,344 448,344 434,320" fill="rgba(72,144,247,0.07)" stroke="rgba(169,199,255,0.12)" stroke-width="0.8"/>
  <polygon points="504,296 532,296 546,320 532,344 504,344 490,320" fill="rgba(72,144,247,0.07)" stroke="rgba(169,199,255,0.12)" stroke-width="0.8"/>
  <polygon points="560,296 588,296 602,320 588,344 560,344 546,320" fill="rgba(72,144,247,0.06)" stroke="rgba(169,199,255,0.1)" stroke-width="0.8"/>
  <polygon points="616,296 644,296 658,320 644,344 616,344 602,320" fill="rgba(72,144,247,0.06)" stroke="rgba(169,199,255,0.1)" stroke-width="0.8"/>
  <polygon points="672,296 700,296 714,320 700,344 672,344 658,320" fill="rgba(72,144,247,0.05)" stroke="rgba(169,199,255,0.1)" stroke-width="0.8"/>
  <polygon points="728,296 756,296 770,320 756,344 728,344 714,320" fill="rgba(72,144,247,0.05)" stroke="rgba(169,199,255,0.1)" stroke-width="0.8"/>

  <!-- Row 7 (y~372) -->
  <polygon points="28,344 56,344 70,368 56,392 28,392 14,368" fill="rgba(72,144,247,0.04)" stroke="rgba(169,199,255,0.08)" stroke-width="0.8"/>
  <polygon points="84,344 112,344 126,368 112,392 84,392 70,368" fill="rgba(72,144,247,0.05)" stroke="rgba(169,199,255,0.1)" stroke-width="0.8"/>
  <polygon points="140,344 168,344 182,368 168,392 140,392 126,368" fill="rgba(72,144,247,0.05)" stroke="rgba(169,199,255,0.1)" stroke-width="0.8"/>
  <polygon points="196,344 224,344 238,368 224,392 196,392 182,368" fill="rgba(72,144,247,0.05)" stroke="rgba(169,199,255,0.1)" stroke-width="0.8"/>
  <polygon points="252,344 280,344 294,368 280,392 252,392 238,368" fill="rgba(72,144,247,0.05)" stroke="rgba(169,199,255,0.1)" stroke-width="0.8"/>
  <polygon points="308,344 336,344 350,368 336,392 308,392 294,368" fill="rgba(72,144,247,0.04)" stroke="rgba(169,199,255,0.08)" stroke-width="0.8"/>
  <polygon points="364,344 392,344 406,368 392,392 364,392 350,368" fill="rgba(72,144,247,0.04)" stroke="rgba(169,199,255,0.08)" stroke-width="0.8"/>
  <polygon points="420,344 448,344 462,368 448,392 420,392 406,368" fill="rgba(72,144,247,0.04)" stroke="rgba(169,199,255,0.08)" stroke-width="0.8"/>
  <polygon points="476,344 504,344 518,368 504,392 476,392 462,368" fill="rgba(72,144,247,0.04)" stroke="rgba(169,199,255,0.08)" stroke-width="0.8"/>
  <polygon points="532,344 560,344 574,368 560,392 532,392 518,368" fill="rgba(72,144,247,0.04)" stroke="rgba(169,199,255,0.08)" stroke-width="0.8"/>
  <polygon points="588,344 616,344 630,368 616,392 588,392 574,368" fill="rgba(72,144,247,0.04)" stroke="rgba(169,199,255,0.08)" stroke-width="0.8"/>
  <polygon points="644,344 672,344 686,368 672,392 644,392 630,368" fill="rgba(72,144,247,0.04)" stroke="rgba(169,199,255,0.08)" stroke-width="0.8"/>
  <polygon points="700,344 728,344 742,368 728,392 700,392 686,368" fill="rgba(72,144,247,0.04)" stroke="rgba(169,199,255,0.08)" stroke-width="0.8"/>

  <!-- Cell nuclei — scattered across hexagons, active zone brighter/larger -->
  <!-- Inactive zone nuclei -->
  <circle cx="155" cy="32" r="4" fill="url(#nucleus)" filter="url(#softglow)"/>
  <circle cx="267" cy="32" r="5" fill="url(#nucleus)" filter="url(#softglow)"/>
  <circle cx="435" cy="32" r="4" fill="url(#nucleus)" filter="url(#softglow)"/>
  <circle cx="603" cy="32" r="5" fill="url(#nucleus)" filter="url(#softglow)"/>
  <circle cx="715" cy="32" r="4" fill="url(#nucleus)" filter="url(#softglow)"/>
  <circle cx="70" cy="80" r="5" fill="url(#nucleus)" filter="url(#softglow)"/>
  <circle cx="238" cy="80" r="4" fill="url(#nucleus)" filter="url(#softglow)"/>
  <circle cx="406" cy="80" r="5" fill="url(#nucleus)" filter="url(#softglow)"/>
  <circle cx="574" cy="80" r="4" fill="url(#nucleus)" filter="url(#softglow)"/>
  <circle cx="742" cy="80" r="5" fill="url(#nucleus)" filter="url(#softglow)"/>
  <circle cx="210" cy="128" r="5" fill="url(#nucleus)" filter="url(#softglow)"/>
  <circle cx="378" cy="128" r="4" fill="url(#nucleus)" filter="url(#softglow)"/>
  <circle cx="546" cy="128" r="5" fill="url(#nucleus)" filter="url(#softglow)"/>
  <circle cx="714" cy="128" r="4" fill="url(#nucleus)" filter="url(#softglow)"/>

  <!-- Active zone nuclei — larger, brighter -->
  <circle cx="182" cy="176" r="6" fill="url(#nucleusActive)" filter="url(#softglow)"/>
  <circle cx="294" cy="176" r="7" fill="url(#nucleusActive)" filter="url(#softglow)"/>
  <circle cx="406" cy="176" r="7" fill="url(#nucleusActive)" filter="url(#softglow)"/>
  <circle cx="518" cy="176" r="6" fill="url(#nucleusActive)" filter="url(#softglow)"/>
  <circle cx="630" cy="176" r="6" fill="url(#nucleusActive)" filter="url(#softglow)"/>
  <circle cx="126" cy="224" r="7" fill="url(#nucleusActive)" filter="url(#softglow)"/>
  <circle cx="238" cy="224" r="7" fill="url(#nucleusActive)" filter="url(#softglow)"/>
  <circle cx="350" cy="224" r="7" fill="url(#nucleusActive)" filter="url(#softglow)"/>
  <circle cx="462" cy="224" r="7" fill="url(#nucleusActive)" filter="url(#softglow)"/>
  <circle cx="574" cy="224" r="7" fill="url(#nucleusActive)" filter="url(#softglow)"/>
  <circle cx="686" cy="224" r="6" fill="url(#nucleusActive)" filter="url(#softglow)"/>
  <circle cx="182" cy="272" r="6" fill="url(#nucleusActive)" filter="url(#softglow)"/>
  <circle cx="350" cy="272" r="7" fill="url(#nucleusActive)" filter="url(#softglow)"/>
  <circle cx="518" cy="272" r="6" fill="url(#nucleusActive)" filter="url(#softglow)"/>
  <circle cx="686" cy="272" r="6" fill="url(#nucleusActive)" filter="url(#softglow)"/>

  <!-- Lower zone nuclei -->
  <circle cx="98" cy="320" r="5" fill="url(#nucleus)" filter="url(#softglow)"/>
  <circle cx="266" cy="320" r="4" fill="url(#nucleus)" filter="url(#softglow)"/>
  <circle cx="434" cy="320" r="5" fill="url(#nucleus)" filter="url(#softglow)"/>
  <circle cx="602" cy="320" r="4" fill="url(#nucleus)" filter="url(#softglow)"/>
  <circle cx="770" cy="320" r="5" fill="url(#nucleus)" filter="url(#softglow)"/>
  <circle cx="154" cy="368" r="4" fill="url(#nucleus)" filter="url(#softglow)"/>
  <circle cx="378" cy="368" r="5" fill="url(#nucleus)" filter="url(#softglow)"/>
  <circle cx="546" cy="368" r="4" fill="url(#nucleus)" filter="url(#softglow)"/>
</svg>
